<svg xmlns="http://www.w3.org/2000/svg" viewBox="0 0 1560 820" role="img" aria-labelledby="title description" data-source-sha256="422ac17d89d88492139e06d46f42e8e1bceba2bf90fe85b36185d801736881dc">
  <title id="title">Authoring Domain Module</title><desc id="description">命令、Project Truth、Pattern Slot / Performance 与 Pad Slot 引用不变量</desc>
  <defs><marker id="arrow" viewBox="0 0 10 10" refX="9" refY="5" markerWidth="8" markerHeight="8" orient="auto-start-reverse"><path d="M 0 0 L 10 5 L 0 10 z"/></marker></defs>
  <style>
    :root{--bg:#f7fafb;--panel:#fff;--text:#102427;--muted:#4b6569;--line:#2b7778;--border:#b8cdcf;--boundary:#eaf4f4;--accent:#00a9a5;--mask:#f7fafb}
    @media(prefers-color-scheme:dark){:root{--bg:#071011;--panel:#102023;--text:#f1fbfb;--muted:#a7c0c3;--line:#59d8d3;--border:#29464a;--boundary:#0c1a1c;--accent:#35d5cf;--mask:#071011}}
    [data-theme=dark]{--bg:#071011;--panel:#102023;--text:#f1fbfb;--muted:#a7c0c3;--line:#59d8d3;--border:#29464a;--boundary:#0c1a1c;--accent:#35d5cf;--mask:#071011}
    [data-theme=light]{--bg:#f7fafb;--panel:#fff;--text:#102427;--muted:#4b6569;--line:#2b7778;--border:#b8cdcf;--boundary:#eaf4f4;--accent:#00a9a5;--mask:#f7fafb}
    svg{background:var(--bg);font-family:Inter,"PingFang SC",system-ui,sans-serif}.page-title{font-size:32px;font-weight:750;fill:var(--text)}.page-summary{font-size:16px;fill:var(--muted)}
    .boundary rect{fill:var(--boundary);stroke:var(--border);stroke-dasharray:7 6}.boundary text{fill:var(--muted);font-size:15px;font-weight:700}.edge-mask{fill:none;stroke:var(--mask);stroke-width:10}.edge{fill:none;stroke:var(--line);stroke-width:2.5}.connection text{fill:var(--muted);font-size:14px;text-anchor:middle}.node-mask{fill:var(--mask)}.node{fill:var(--panel);stroke:var(--border);stroke-width:2}.kind-host .node,.kind-provider .node{stroke:var(--accent)}.node-title{fill:var(--text);font-size:19px;font-weight:750}.node-detail{fill:var(--muted);font-size:14px}.card rect{fill:var(--panel);stroke:var(--border)}.card-title{fill:var(--text);font-size:17px;font-weight:750}.card-body{color:var(--muted);font-size:15px;line-height:1.45}.marker{fill:var(--line)}
  </style>
  <rect width="1560" height="820" fill="var(--bg)"/><text class="page-title" x="40" y="44">Authoring Domain Module</text><text class="page-summary" x="40" y="68">命令、Project Truth、Pattern Slot / Performance 与 Pad Slot 引用不变量</text>

  <g class="connection"><path class="edge-mask" d="M 300 238 H 375 V 238 H 450"/><path class="edge" d="M 300 238 H 375 V 238 H 450" marker-end="url(#arrow)"/></g>
<g class="connection"><path class="edge-mask" d="M 700 238 H 775 V 238 H 850"/><path class="edge" d="M 700 238 H 775 V 238 H 850" marker-end="url(#arrow)"/><text x="775" y="229">new state</text></g>
<g class="connection"><path class="edge-mask" d="M 1100 238 H 1170 V 238 H 1240"/><path class="edge" d="M 1100 238 H 1170 V 238 H 1240" marker-end="url(#arrow)"/></g>
<g class="connection"><path class="edge-mask" d="M 1100 238 H 1170 V 378 H 1240"/><path class="edge" d="M 1100 238 H 1170 V 378 H 1240" marker-end="url(#arrow)"/><text x="1170" y="299">launch address space</text></g>
<g class="connection"><path class="edge-mask" d="M 1100 238 H 1170 V 508 H 1240"/><path class="edge" d="M 1100 238 H 1170 V 508 H 1240" marker-end="url(#arrow)"/><text x="1170" y="364">recorded gestures</text></g>

    <g class="component kind-host">
      <rect class="node-mask" x="76" y="186" width="228" height="104" rx="18"/>
      <rect class="node" x="80" y="190" width="220" height="96" rx="14"/>
      <text class="node-title" x="96" y="222">Commands</text>
      <text class="node-detail" x="96" y="248">validated input</text>
    </g>
    <g class="component kind-core">
      <rect class="node-mask" x="446" y="186" width="258" height="104" rx="18"/>
      <rect class="node" x="450" y="190" width="250" height="96" rx="14"/>
      <text class="node-title" x="466" y="222">Command Handler</text>
      <text class="node-detail" x="466" y="248">domain rules</text>
    </g>
    <g class="component kind-core">
      <rect class="node-mask" x="846" y="186" width="258" height="104" rx="18"/>
      <rect class="node" x="850" y="190" width="250" height="96" rx="14"/>
      <text class="node-title" x="866" y="222">Project Truth</text>
      <text class="node-detail" x="866" y="248">authoring state · closed Slice lineage</text>
    </g>
    <g class="component kind-host">
      <rect class="node-mask" x="1236" y="186" width="268" height="104" rx="18"/>
      <rect class="node" x="1240" y="190" width="260" height="96" rx="14"/>
      <text class="node-title" x="1256" y="222">I/O · Cooker · Facade</text>
      <text class="node-detail" x="1256" y="248">read / persist</text>
    </g>
    <g class="component kind-core">
      <rect class="node-mask" x="1236" y="326" width="268" height="104" rx="18"/>
      <rect class="node" x="1240" y="330" width="260" height="96" rx="14"/>
      <text class="node-title" x="1256" y="362">Pattern Slots</text>
      <text class="node-detail" x="1256" y="388">16 launchable Pattern addresses</text>
    </g>
    <g class="component kind-core">
      <rect class="node-mask" x="1236" y="456" width="268" height="104" rx="18"/>
      <rect class="node" x="1240" y="460" width="260" height="96" rx="14"/>
      <text class="node-title" x="1256" y="492">Performances</text>
      <text class="node-detail" x="1256" y="518">closed seven-kind event union</text>
    </g>
  <g class="card"><rect x="40" y="638" width="356" height="132" rx="14"/><text class="card-title" x="58" y="670">Dependency</text><foreignObject x="58" y="684" width="320" height="70"><div xmlns="http://www.w3.org/1999/xhtml" class="card-body">Foundation only.</div></foreignObject></g>
<g class="card"><rect x="414" y="638" width="356" height="132" rx="14"/><text class="card-title" x="432" y="670">Owned state</text><foreignObject x="432" y="684" width="320" height="70"><div xmlns="http://www.w3.org/1999/xhtml" class="card-body">Project Truth, Sample defaults, sixteen Pattern Slots, saved Performances and command replay semantics. Closed Slice adoption evidence lives only in Asset.lineage.</div></foreignObject></g>
<g class="card"><rect x="788" y="638" width="356" height="132" rx="14"/><text class="card-title" x="806" y="670">Performance model</text><foreignObject x="806" y="684" width="320" height="70"><div xmlns="http://www.w3.org/1999/xhtml" class="card-body">A closed event union: pad hit, pattern launch, FX engage/move/release, hold on/off. Ticks stay PPQ 960.</div></foreignObject></g>
<g class="card"><rect x="1162" y="638" width="356" height="132" rx="14"/><text class="card-title" x="1180" y="670">Forbidden boundary</text><foreignObject x="1180" y="684" width="320" height="70"><div xmlns="http://www.w3.org/1999/xhtml" class="card-body">No Runtime Snapshot, Provider choice, storage or audio.</div></foreignObject></g>
</svg>
