<svg xmlns="http://www.w3.org/2000/svg" aria-hidden="true">
  <symbol id="kick" viewBox="0 0 32 32">
    <g stroke="currentColor" stroke-width="2.4" stroke-linejoin="round">
      <path fill="currentColor" d="M7 4H23L28 9V23L23 28H8L4 24V9Z"/>
      <circle cx="16" cy="16" r="8" fill="#F6F2E8"/>
      <circle cx="16" cy="16" r="3.25" fill="currentColor"/>
      <path d="M25 5V11H29" fill="none"/>
    </g>
  </symbol>
  <symbol id="snare" viewBox="0 0 32 32">
    <g stroke="currentColor" stroke-width="2.4" stroke-linecap="square" stroke-linejoin="round">
      <path fill="currentColor" d="M5 7H27L24 25H8Z"/>
      <path d="M8 11H24M10 14L14 22L18 14L22 22" fill="none" stroke="#F6F2E8"/>
      <path d="M10 25V29M22 25V29" fill="none"/>
      <rect x="23" y="4" width="5" height="5" fill="#F6F2E8"/>
    </g>
  </symbol>
  <symbol id="hat" viewBox="0 0 32 32">
    <g stroke="currentColor" stroke-width="2.4" stroke-linejoin="round">
      <path d="M16 3V8" fill="none"/>
      <path fill="currentColor" d="M6 14C8.5 8.5 12 6 16 6C20 6 23.5 8.5 26 14Z"/>
      <path fill="currentColor" d="M3 17H29L25 22H7Z"/>
      <path d="M16 22V28M11 28H21" fill="none"/>
      <circle cx="20.5" cy="11.5" r="2.25" fill="#F6F2E8" stroke="none"/>
    </g>
  </symbol>
  <symbol id="percussion" viewBox="0 0 32 32">
    <g stroke="currentColor" stroke-width="2.4" stroke-linejoin="round">
      <path d="M9 10L23 22M21 9L10 23" fill="none"/>
      <circle cx="8" cy="8" r="5" fill="currentColor"/>
      <path d="M21 4H28V11H21Z" fill="currentColor"/>
      <path d="M23 17L29 28H17Z" fill="currentColor"/>
      <circle cx="8" cy="8" r="1.8" fill="#F6F2E8" stroke="none"/>
      <path d="M23 6.5H26M22 24H25" stroke="#F6F2E8" fill="none"/>
    </g>
  </symbol>
  <symbol id="bass" viewBox="0 0 32 32">
    <g fill="none" stroke="currentColor" stroke-linecap="square" stroke-linejoin="round">
      <path d="M4 17C8 5 12 5 16 17C20 29 24 29 28 17" stroke-width="7"/>
      <path d="M4 11V23M28 11V23" stroke-width="2.4"/>
      <circle cx="16" cy="17" r="2.1" fill="#F6F2E8" stroke="none"/>
    </g>
  </symbol>
  <symbol id="melody" viewBox="0 0 32 32">
    <g fill="none" stroke="currentColor" stroke-width="5.5" stroke-linecap="round" stroke-linejoin="round">
      <path d="M5 24L11 10L18 21L27 6"/>
      <circle cx="5" cy="24" r="3.5" fill="currentColor" stroke="none"/>
      <circle cx="11" cy="10" r="3.5" fill="currentColor" stroke="none"/>
      <circle cx="18" cy="21" r="3.5" fill="currentColor" stroke="none"/>
      <circle cx="27" cy="6" r="3.5" fill="currentColor" stroke="none"/>
      <circle cx="27" cy="6" r="1.35" fill="#F6F2E8" stroke="none"/>
    </g>
  </symbol>
  <symbol id="vocal" viewBox="0 0 32 32">
    <g stroke="currentColor" stroke-width="2.4" stroke-linecap="square" stroke-linejoin="round">
      <path fill="currentColor" d="M10 3H22L25 7V18L21 22H11L7 18V7Z"/>
      <path d="M11 9H21M11 14H21" stroke="#F6F2E8" fill="none"/>
      <path d="M4 15V18C4 24 9 28 16 28C23 28 28 24 28 18V15M16 23V30" fill="none"/>
      <circle cx="21.5" cy="6.5" r="1.7" fill="#F6F2E8" stroke="none"/>
    </g>
  </symbol>
  <symbol id="phrase" viewBox="0 0 32 32">
    <g stroke="currentColor" stroke-width="2.4" stroke-linejoin="round">
      <path d="M9 4H4V28H9M23 4H28V28H23" fill="none"/>
      <path d="M8 16H12L14 9L18 23L20 14H24" fill="none" stroke-width="4"/>
      <circle cx="8" cy="8" r="3.5" fill="currentColor"/>
      <rect x="20.5" y="20.5" width="7" height="7" fill="currentColor"/>
      <circle cx="8" cy="8" r="1.25" fill="#F6F2E8" stroke="none"/>
    </g>
  </symbol>
</svg>
