<svg preserveAspectRatio="none" overflow="visible" style="display: block;" width="32" height="32" viewBox="0 0 32 32" fill="none" xmlns="http://www.w3.org/2000/svg">
<g id="Encoder 3 &#194;&#183; &#230;&#151;&#139;&#233;&#146;&#174; 3" clip-path="url(#clip0_0_64)">
<path id="Vector" d="M16 31C24.2843 31 31 24.2843 31 16C31 7.71573 24.2843 1 16 1C7.71573 1 1 7.71573 1 16C1 24.2843 7.71573 31 16 31Z" stroke="#667060" stroke-dasharray="1 4"/>
<path id="Vector_2" d="M16 28C22.6274 28 28 22.6274 28 16C28 9.37258 22.6274 4 16 4C9.37258 4 4 9.37258 4 16C4 22.6274 9.37258 28 16 28Z" fill="#343A34" stroke="#929C89"/>
<path id="Vector_3" d="M16 25C20.9706 25 25 20.9706 25 16C25 11.0294 20.9706 7 16 7C11.0294 7 7 11.0294 7 16C7 20.9706 11.0294 25 16 25Z" fill="#292D29"/>
<g id="Vector_4">
<path d="M16 11V6Z" fill="black"/>
<path d="M16 11V6" stroke="#DDF478" stroke-width="2" stroke-linecap="round"/>
</g>
</g>
<defs>
<clipPath id="clip0_0_64">
<rect width="32" height="32" fill="white"/>
</clipPath>
</defs>
</svg>
